<?xml version="1.0" standalone="no"?><!DOCTYPE svg PUBLIC "-//W3C//DTD SVG 1.1//EN" "http://www.w3.org/Graphics/SVG/1.1/DTD/svg11.dtd"><svg t="1603768495151" class="icon" viewBox="0 0 1030 1024" version="1.1" xmlns="http://www.w3.org/2000/svg" p-id="2411" xmlns:xlink="http://www.w3.org/1999/xlink" width="128.75" height="128"><defs><style type="text/css"></style></defs><path d="M965.65024 864c-3.2-35.2-19.2-73.6-38.4-99.2-51.2-70.4-204.8-134.4-236.8-137.6-41.6-6.4-44.8-54.4-22.4-105.6 12.8-28.8 19.2-57.6 19.2-57.6s57.6-60.8 57.6-64v-224c-3.2-38.4-12.8-67.2-28.8-89.6l12.8 12.8h12.8c76.8 0 102.4 38.4 108.8 105.6 6.4 60.8-9.6 115.2-9.6 115.2s28.8 19.2 9.6 67.2c-19.2 48-48 54.4-48 54.4s-6.4 25.6-16 48c-19.2 41.6-16 105.6 19.2 112 25.6 3.2 153.6 28.8 195.2 86.4 35.2 51.2 54.4 144-35.2 176z m-288-467.2c-22.4 60.8-57.6 64-57.6 64s-6.4 32-19.2 57.6c-22.4 51.2-19.2 131.2 22.4 137.6 32 3.2 188.8 38.4 236.8 105.6 51.2 70.4 73.6 188.8-51.2 224-48 12.8-134.4 25.6-233.6 32-67.2 3.2-230.4 0-243.2 0-99.2-6.4-188.8-16-240-32-124.8-35.2-102.4-156.8-51.2-224 51.2-70.4 208-102.4 240-105.6 32-3.2 48-28.8 57.6-54.4 6.4-25.6-22.4-41.6-38.4-70.4-16-28.8-25.6-70.4-25.6-70.4s-32-3.2-57.6-64c-22.4-60.8 12.8-83.2 12.8-83.2s-19.2-67.2-6.4-140.8C236.05024 96 306.45024 0 399.25024 0c102.4 0 128 28.8 131.2 41.6h12.8c96 0 124.8 48 131.2 131.2 6.4 76.8-12.8 140.8-12.8 140.8s38.4 22.4 16 83.2z" fill="#4B9AFC" p-id="2412"></path></svg>