<?xml version="1.0" standalone="no"?><!DOCTYPE svg PUBLIC "-//W3C//DTD SVG 1.1//EN" "http://www.w3.org/Graphics/SVG/1.1/DTD/svg11.dtd"><svg t="1603768682134" class="icon" viewBox="0 0 1024 1024" version="1.1" xmlns="http://www.w3.org/2000/svg" p-id="12244" xmlns:xlink="http://www.w3.org/1999/xlink" width="128" height="128"><defs><style type="text/css"></style></defs><path d="M1022.293364 470.409918a511.990827 511.990827 0 1 0-551.883445 551.883446 513.484133 513.484133 0 0 0 551.883445-551.883446z m-279.24833 2.559955a53.332378 53.332378 0 0 1-75.305317 6.186555l-14.506407-12.373111a53.332378 53.332378 0 0 0-87.891759 40.745936v185.810005A53.332378 53.332378 0 0 1 512.009173 746.671635a53.332378 53.332378 0 0 1-53.332377-53.332377v-185.810005a53.332378 53.332378 0 0 0-87.891759-40.745936l-14.506407 12.586441a53.545707 53.545707 0 0 1-75.305317-6.399885 53.332378 53.332378 0 0 1 6.186556-75.091988l155.943872-132.050968a106.664756 106.664756 0 0 1 137.810865 0l155.943872 132.050968a53.332378 53.332378 0 0 1 6.186556 75.091988z" fill="#54CAD9" p-id="12245"></path></svg>